<svg xmlns="http://www.w3.org/2000/svg" width="1000" height="255" viewBox="0 0 1000 255" role="img" aria-labelledby="title desc">
<title id="title">Research directions</title><desc id="desc">Illustrative research diagrams for graph learning, biological knowledge graphs, multimodal drug-combination prediction, mathematical modelling, and reproducible workflows. Not experimental results.</desc>
<rect x=".5" y=".5" width="999" height="254" rx="6" fill="#101615" stroke="#2A3632"/>
<line x1="333" y1="28" x2="333" y2="231" stroke="#2A3632" /><line x1="666" y1="28" x2="666" y2="231" stroke="#2A3632" /><line x1="49" y1="79" x2="97" y2="44" stroke="#688F7A" /><line x1="49" y1="79" x2="121" y2="111" stroke="#688F7A" /><line x1="97" y1="44" x2="121" y2="111" stroke="#688F7A" /><line x1="97" y1="44" x2="174" y2="67" stroke="#688F7A" /><line x1="121" y1="111" x2="174" y2="67" stroke="#688F7A" /><line x1="121" y1="111" x2="216" y2="108" stroke="#688F7A" /><line x1="174" y1="67" x2="216" y2="108" stroke="#688F7A" /><line x1="174" y1="67" x2="261" y2="51" stroke="#688F7A" /><line x1="216" y1="108" x2="261" y2="51" stroke="#688F7A" /><line x1="216" y1="108" x2="283" y2="123" stroke="#688F7A" /><line x1="261" y1="51" x2="283" y2="123" stroke="#688F7A" /><circle cx="49" cy="79" r="4" fill="#B5E8C3" /><circle cx="97" cy="44" r="4" fill="#B5E8C3" /><circle cx="121" cy="111" r="4" fill="#B5E8C3" /><circle cx="174" cy="67" r="7" fill="#F2F0E7" /><circle cx="216" cy="108" r="4" fill="#B5E8C3" /><circle cx="261" cy="51" r="4" fill="#B5E8C3" /><circle cx="283" cy="123" r="4" fill="#B5E8C3" /><text x="30" y="166" fill="#A9B6AE" font-family="Arial, Helvetica, sans-serif" font-size="12" letter-spacing="2">01 / REPRESENT</text><text x="30" y="198" fill="#F2F0E7" font-family="Arial, Helvetica, sans-serif" font-size="22" font-weight="600">Learning on graphs</text><text x="30" y="223" fill="#A9B6AE" font-family="Arial, Helvetica, sans-serif" font-size="14" >Neural networks · Biological knowledge</text><rect x="376" y="32" width="25" height="15" rx="2" fill="#B5E8C3" opacity="0.12"/><rect x="406" y="32" width="25" height="15" rx="2" fill="#B5E8C3" opacity="0.45"/><rect x="436" y="32" width="25" height="15" rx="2" fill="#B5E8C3" opacity="0.78"/><rect x="466" y="32" width="25" height="15" rx="2" fill="#B5E8C3" opacity="0.34"/><rect x="496" y="32" width="25" height="15" rx="2" fill="#B5E8C3" opacity="0.67"/><rect x="526" y="32" width="25" height="15" rx="2" fill="#B5E8C3" opacity="0.23"/><rect x="556" y="32" width="25" height="15" rx="2" fill="#B5E8C3" opacity="0.56"/><rect x="586" y="32" width="25" height="15" rx="2" fill="#B5E8C3" opacity="0.12"/><rect x="376" y="52" width="25" height="15" rx="2" fill="#B5E8C3" opacity="0.23"/><rect x="406" y="52" width="25" height="15" rx="2" fill="#B5E8C3" opacity="0.56"/><rect x="436" y="52" width="25" height="15" rx="2" fill="#B5E8C3" opacity="0.12"/><rect x="466" y="52" width="25" height="15" rx="2" fill="#B5E8C3" opacity="0.45"/><rect x="496" y="52" width="25" height="15" rx="2" fill="#B5E8C3" opacity="0.78"/><rect x="526" y="52" width="25" height="15" rx="2" fill="#B5E8C3" opacity="0.34"/><rect x="556" y="52" width="25" height="15" rx="2" fill="#B5E8C3" opacity="0.67"/><rect x="586" y="52" width="25" height="15" rx="2" fill="#B5E8C3" opacity="0.23"/><rect x="376" y="72" width="25" height="15" rx="2" fill="#B5E8C3" opacity="0.34"/><rect x="406" y="72" width="25" height="15" rx="2" fill="#B5E8C3" opacity="0.67"/><rect x="436" y="72" width="25" height="15" rx="2" fill="#B5E8C3" opacity="0.23"/><rect x="466" y="72" width="25" height="15" rx="2" fill="#B5E8C3" opacity="0.56"/><rect x="496" y="72" width="25" height="15" rx="2" fill="#B5E8C3" opacity="0.12"/><rect x="526" y="72" width="25" height="15" rx="2" fill="#B5E8C3" opacity="0.45"/><rect x="556" y="72" width="25" height="15" rx="2" fill="#B5E8C3" opacity="0.78"/><rect x="586" y="72" width="25" height="15" rx="2" fill="#B5E8C3" opacity="0.34"/><rect x="376" y="92" width="25" height="15" rx="2" fill="#B5E8C3" opacity="0.45"/><rect x="406" y="92" width="25" height="15" rx="2" fill="#B5E8C3" opacity="0.78"/><rect x="436" y="92" width="25" height="15" rx="2" fill="#B5E8C3" opacity="0.34"/><rect x="466" y="92" width="25" height="15" rx="2" fill="#B5E8C3" opacity="0.67"/><rect x="496" y="92" width="25" height="15" rx="2" fill="#B5E8C3" opacity="0.23"/><rect x="526" y="92" width="25" height="15" rx="2" fill="#B5E8C3" opacity="0.56"/><rect x="556" y="92" width="25" height="15" rx="2" fill="#B5E8C3" opacity="0.12"/><rect x="586" y="92" width="25" height="15" rx="2" fill="#B5E8C3" opacity="0.45"/><rect x="376" y="112" width="25" height="15" rx="2" fill="#B5E8C3" opacity="0.56"/><rect x="406" y="112" width="25" height="15" rx="2" fill="#B5E8C3" opacity="0.12"/><rect x="436" y="112" width="25" height="15" rx="2" fill="#B5E8C3" opacity="0.45"/><rect x="466" y="112" width="25" height="15" rx="2" fill="#B5E8C3" opacity="0.78"/><rect x="496" y="112" width="25" height="15" rx="2" fill="#B5E8C3" opacity="0.34"/><rect x="526" y="112" width="25" height="15" rx="2" fill="#B5E8C3" opacity="0.67"/><rect x="556" y="112" width="25" height="15" rx="2" fill="#B5E8C3" opacity="0.23"/><rect x="586" y="112" width="25" height="15" rx="2" fill="#B5E8C3" opacity="0.56"/><text x="363" y="166" fill="#A9B6AE" font-family="Arial, Helvetica, sans-serif" font-size="12" letter-spacing="2">02 / PREDICT</text><text x="363" y="198" fill="#F2F0E7" font-family="Arial, Helvetica, sans-serif" font-size="22" font-weight="600">Drug combinations</text><text x="363" y="223" fill="#A9B6AE" font-family="Arial, Helvetica, sans-serif" font-size="14" >Multimodal learning · Synergy prediction</text><line x1="708" y1="130" x2="951" y2="130" stroke="#2A3632" /><line x1="708" y1="130" x2="708" y2="31" stroke="#2A3632" /><path d="M 708 124 C 751 123 764 99 799 78 S 874 52 951 35" fill="none" stroke="#B5E8C3" stroke-width="2"/><path d="M 708 124 C 755 124 781 123 816 102 S 894 84 951 43" fill="none" stroke="#688F7A" stroke-width="1.5" stroke-dasharray="4 5"/><circle cx="799" cy="78" r="4" fill="#B5E8C3" /><circle cx="900" cy="47" r="4" fill="#B5E8C3" /><text x="696" y="166" fill="#A9B6AE" font-family="Arial, Helvetica, sans-serif" font-size="12" letter-spacing="2">03 / UNDERSTAND</text><text x="696" y="198" fill="#F2F0E7" font-family="Arial, Helvetica, sans-serif" font-size="22" font-weight="600">Models &amp; workflows</text><text x="696" y="223" fill="#A9B6AE" font-family="Arial, Helvetica, sans-serif" font-size="14" >Mathematical modelling · Reproducibility</text>
</svg>
